<svg width="450" height="180" viewBox="0 0 450 180" xmlns="http://www.w3.org/2000/svg" fill="none" font-family="'Segoe UI', Ubuntu, Sans-Serif">
  <style>
    .header { font: 700 18px 'Segoe UI', Ubuntu, Sans-Serif; fill: #8B5CF6; }
    .stat   { font: 600 14px 'Segoe UI', Ubuntu, Sans-Serif; fill: #c9d1d9; }
    .num    { font: 700 14px 'Segoe UI', Ubuntu, Sans-Serif; fill: #8B5CF6; }
    .icon   { fill: #8B5CF6; }
    .card   { fill: #0b0b0f; }
    @keyframes fadeInAnim {
      from { opacity: 0; transform: translate(-10px, 0); }
      to   { opacity: 1; transform: translate(0, 0); }
    }
    .row { opacity: 0; animation: fadeInAnim 0.6s ease-in-out forwards; }
  </style>
  <rect width="450" height="180" rx="6" class="card"/>
  <text x="25" y="35" class="header">slow's github stats</text>

  <g transform="translate(25, 65)" class="row" style="animation-delay: 150ms;">
    <path class="icon" d="M8 .25a.75.75 0 01.673.418l1.882 3.815 4.21.612a.75.75 0 01.416 1.279l-3.046 2.97.719 4.192a.75.75 0 01-1.088.791L8 12.347l-3.766 1.98a.75.75 0 01-1.088-.79l.72-4.194L.818 6.374a.75.75 0 01.416-1.28l4.21-.611L7.327.668A.75.75 0 018 .25z" transform="translate(0,-11)"/>
    <text x="25" y="0" class="stat">Total Stars Earned:</text>
    <text x="230" y="0" class="num">2</text>
  </g>

  <g transform="translate(25, 92)" class="row" style="animation-delay: 300ms;">
    <path class="icon" d="M11.93 8.5a4.002 4.002 0 01-7.86 0H.75a.75.75 0 110-1.5h3.32a4.002 4.002 0 017.86 0h3.32a.75.75 0 110 1.5h-3.32zM8 10.5a2.5 2.5 0 100-5 2.5 2.5 0 000 5z" transform="translate(0,-11)"/>
    <text x="25" y="0" class="stat">Total Commits (2026):</text>
    <text x="230" y="0" class="num">7</text>
  </g>

  <g transform="translate(25, 119)" class="row" style="animation-delay: 450ms;">
    <path class="icon" d="M1 2.5A2.5 2.5 0 013.5 0h8.75a.75.75 0 01.75.75v3.5a.75.75 0 01-1.5 0V1.5h-8a1 1 0 00-1 1v6.708A2.492 2.492 0 013.5 9h3.25a.75.75 0 010 1.5H3.5a1 1 0 100 2h5.75a.75.75 0 010 1.5H3.5A2.5 2.5 0 011 11.5v-9zm13.23 7.79a.75.75 0 001.06-1.06l-2.505-2.505a.75.75 0 00-1.06 0L9.22 9.229a.75.75 0 001.06 1.061l1.225-1.224v6.184a.75.75 0 001.5 0V9.066l1.224 1.224z" transform="translate(0,-11)"/>
    <text x="25" y="0" class="stat">Total PRs:</text>
    <text x="230" y="0" class="num">0</text>
  </g>

  <g transform="translate(25, 146)" class="row" style="animation-delay: 600ms;">
    <path class="icon" d="M4.75 0a.75.75 0 01.75.75V4.5h9.75a.75.75 0 010 1.5H5.5v3.75a.75.75 0 01-1.5 0V6H.75a.75.75 0 010-1.5H4V.75A.75.75 0 014.75 0zM4 12.25a.75.75 0 011.5 0v3a.75.75 0 01-1.5 0v-3z" transform="translate(0,-11)"/>
    <text x="25" y="0" class="stat">Contributed to:</text>
    <text x="230" y="0" class="num">3 repos</text>
  </g>

  <g transform="translate(320, 90)">
    <circle cx="0" cy="0" r="55" stroke="#8B5CF6" stroke-width="6" fill="none" opacity="0.2"/>
    <circle cx="0" cy="0" r="55" stroke="#8B5CF6" stroke-width="6" fill="none"
            stroke-dasharray="345.5" stroke-dashoffset="220" transform="rotate(-90)" stroke-linecap="round"/>
    <text x="0" y="-4" text-anchor="middle" class="header" font-size="22">A+</text>
    <text x="0" y="18" text-anchor="middle" class="stat" font-size="11">rank</text>
  </g>
</svg>
